<svg xmlns="http://www.w3.org/2000/svg" viewBox="0 0 64 64">
  <defs>
    <linearGradient id="grad6" x1="0%" y1="0%" x2="100%" y2="100%">
      <stop offset="0%" style="stop-color:#ec4899"/>
      <stop offset="100%" style="stop-color:#f472b6"/>
    </linearGradient>
  </defs>
  <rect width="64" height="64" rx="12" fill="url(#grad6)"/>
  <circle cx="32" cy="32" r="18" fill="white" opacity="0.9"/>
  <path d="M32 20c-5.5 0-10 3.6-10 8v2c0 1.1.9 2 2 2h1v4l4-2h6c1.1 0 2-.9 2-2v-2c0-1.1-.9-2-2-2h-3z" fill="#ec4899"/>
  <circle cx="24" cy="28" r="2" fill="#ec4899"/>
  <circle cx="40" cy="28" r="2" fill="#ec4899"/>
  <path d="M28 38c0 2.2 1.8 4 4 4s4-1.8 4-4" stroke="#ec4899" stroke-width="2" fill="none" stroke-linecap="round"/>
</svg>
